<?xml version="1.0" standalone="no"?>
<!DOCTYPE svg PUBLIC "-//W3C//DTD SVG 20010904//EN"
 "http://www.w3.org/TR/2001/REC-SVG-20010904/DTD/svg10.dtd">
<svg version="1.0" xmlns="http://www.w3.org/2000/svg"
  width="31.88" height="32" viewBox="0 0 256 257"
 preserveAspectRatio="xMidYMid meet">

<g transform="translate(0.000000,1010.000000) scale(0.100000,-0.100000)"
fill="#FF5733" stroke="none">
<path d="M10810 10070 c-371 -31 -796 -130 -1250 -292 -126 -45 -223 -103
-499 -301 -362 -259 -648 -513 -748 -663 -77 -116 -204 -165 -475 -184 -318
-23 -712 -113 -1043 -240 -55 -21 -131 -43 -170 -50 -164 -29 -354 -118 -432
-203 -72 -78 -88 -118 -87 -227 0 -61 7 -116 18 -154 41 -137 139 -283 228
-339 34 -21 48 -38 57 -68 29 -98 146 -251 270 -355 176 -148 429 -250 696
-283 139 -17 371 -13 560 9 190 22 469 26 605 9 433 -53 818 -237 1045 -499
53 -61 125 -184 125 -213 0 -8 -16 -41 -35 -73 -45 -75 -58 -125 -52 -197 7
-75 44 -150 104 -209 60 -59 259 -179 503 -302 319 -162 564 -265 890 -374
193 -64 196 -65 355 -75 244 -16 284 -15 330 11 22 11 78 55 125 97 47 42 173
148 280 235 284 230 481 437 673 706 65 91 78 105 132 130 33 16 98 54 145 85
242 159 446 402 599 714 65 132 88 190 124 311 l15 51 -86 23 c-112 29 -219
78 -285 130 -56 45 -127 125 -127 144 0 6 13 27 29 46 69 85 100 196 82 295
-16 88 -79 209 -153 290 -35 39 -116 117 -180 173 -288 253 -499 542 -787
1077 -99 182 -136 230 -219 277 -30 17 -65 48 -81 72 -44 63 -159 167 -244
220 -143 89 -319 150 -521 181 -127 19 -380 26 -516 15z m396 -221 c195 -19
374 -74 517 -157 82 -47 189 -152 223 -216 24 -47 34 -56 64 -61 79 -15 100
-39 205 -240 268 -509 533 -864 848 -1133 188 -161 264 -291 227 -388 -6 -15
-41 -57 -79 -94 -61 -59 -71 -74 -94 -146 -67 -201 -94 -551 -53 -676 18 -56
18 -58 -3 -125 -52 -171 -233 -491 -411 -729 -183 -244 -309 -371 -597 -603
-84 -67 -196 -161 -248 -207 l-96 -85 -187 14 c-181 15 -192 17 -342 67 -375
126 -766 301 -1106 495 -204 117 -234 144 -234 212 0 51 49 102 247 259 337
269 575 493 772 729 456 548 758 1209 885 1942 23 132 25 160 16 219 -11 67
-6 142 12 179 6 11 24 35 42 53 25 27 31 41 31 78 0 39 -5 50 -33 75 -87 78
-214 -12 -258 -181 -12 -49 -15 -92 -11 -175 13 -288 -149 -865 -363 -1300
-189 -381 -409 -685 -734 -1011 -227 -227 -554 -504 -563 -477 -11 33 -86 142
-139 202 -286 324 -739 533 -1258 582 -154 14 -398 7 -576 -17 -165 -22 -432
-22 -562 -1 -183 31 -352 98 -483 192 -65 46 -188 172 -217 222 l-17 30 151
21 c83 12 153 24 155 26 3 2 -18 38 -46 80 -28 42 -56 88 -61 102 l-11 27 103
-7 c57 -3 137 -9 180 -12 90 -7 134 5 184 49 56 48 78 101 77 182 -1 118 -65
240 -190 362 l-63 61 57 17 c246 73 443 110 687 130 307 25 446 73 565 194 37
37 80 86 96 110 61 87 363 359 533 480 l33 23 -34 -53 c-50 -78 -116 -213
-144 -294 -34 -95 -42 -233 -19 -303 20 -59 17 -57 186 -88 135 -25 396 -26
466 -1 179 62 230 231 132 435 -56 118 -264 299 -381 332 -26 7 -73 11 -105 8
l-59 -4 61 45 c34 25 129 90 211 146 l150 101 220 73 c571 191 1059 268 1441
230z m-1730 -1034 c33 -69 32 -112 -3 -126 -28 -10 -178 -18 -186 -9 -3 3 10
37 29 75 23 46 36 91 41 133 l6 63 45 -43 c24 -24 55 -65 68 -93z m-2552 -706
c69 -25 124 -72 178 -152 39 -58 59 -119 41 -130 -5 -3 -50 0 -99 8 -275 45
-417 -15 -434 -185 l-5 -55 -64 -3 c-58 -3 -66 -1 -93 25 -71 68 -128 198
-128 293 0 41 5 53 33 81 41 41 172 103 273 129 99 25 214 21 298 -11z m6411
-950 c49 -50 155 -121 229 -154 54 -24 55 -25 45 -52 -27 -71 -136 -267 -193
-346 -61 -86 -215 -262 -222 -254 -2 2 12 39 31 84 72 166 89 288 50 363 -10
20 -15 59 -15 126 0 104 18 274 29 274 4 0 25 -18 46 -41z"/>
</g></svg>
